solid zone0
 facet normal -1 0 0
  outer loop
   vertex -2.84217e-17 -0.0945 0.238
   vertex -2.84217e-17 0.0945 0.15
   vertex -2.84217e-17 -0.0945 0.15
  endloop
 endfacet
 facet normal -1 0 0
  outer loop
   vertex -2.84217e-17 -0.0945 0.238
   vertex -2.84217e-17 0.0945 0.238
   vertex -2.84217e-17 0.0945 0.15
  endloop
 endfacet
 facet normal -0.999595 -0.0284567 -0
  outer loop
   vertex 0.000161957 -0.100189 0.243689
   vertex -2.84217e-17 -0.0945 0.15
   vertex 0.000161957 -0.100189 0.144311
  endloop
 endfacet
 facet normal -0.999595 -0.0284567 0
  outer loop
   vertex 0.000161957 -0.100189 0.243689
   vertex -2.84217e-17 -0.0945 0.238
   vertex -2.84217e-17 -0.0945 0.15
  endloop
 endfacet
 facet normal -0.996357 -0.0852778 -0
  outer loop
   vertex 0.000647302 -0.10586 0.24936
   vertex 0.000161957 -0.100189 0.144311
   vertex 0.000647302 -0.10586 0.13864
  endloop
 endfacet
 facet normal -0.996357 -0.0852778 0
  outer loop
   vertex 0.000647302 -0.10586 0.24936
   vertex 0.000161957 -0.100189 0.243689
   vertex 0.000161957 -0.100189 0.144311
  endloop
 endfacet
 facet normal -0.989892 -0.141823 0
  outer loop
   vertex 0.00145446 -0.111493 0.133007
   vertex 0.000647302 -0.10586 0.24936
   vertex 0.000647302 -0.10586 0.13864
  endloop
 endfacet
 facet normal -0.989892 -0.141823 -0
  outer loop
   vertex 0.00145446 -0.111493 0.254993
   vertex 0.000647302 -0.10586 0.24936
   vertex 0.00145446 -0.111493 0.133007
  endloop
 endfacet
 facet normal -0.98022 -0.197908 0
  outer loop
   vertex 0.00258083 -0.117072 0.127428
   vertex 0.00145446 -0.111493 0.254993
   vertex 0.00145446 -0.111493 0.133007
  endloop
 endfacet
 facet normal -0.98022 -0.197908 -0
  outer loop
   vertex 0.00258083 -0.117072 0.260572
   vertex 0.00145446 -0.111493 0.254993
   vertex 0.00258083 -0.117072 0.127428
  endloop
 endfacet
 facet normal -0.967374 -0.253353 0
  outer loop
   vertex 0.00402274 -0.122578 0.121922
   vertex 0.00258083 -0.117072 0.260572
   vertex 0.00258083 -0.117072 0.127428
  endloop
 endfacet
 facet normal -0.967374 -0.253353 -0
  outer loop
   vertex 0.00402274 -0.122578 0.266078
   vertex 0.00258083 -0.117072 0.260572
   vertex 0.00402274 -0.122578 0.121922
  endloop
 endfacet
 facet normal -0.951394 -0.307977 0
  outer loop
   vertex 0.00577554 -0.127993 0.116507
   vertex 0.00402274 -0.122578 0.266078
   vertex 0.00402274 -0.122578 0.121922
  endloop
 endfacet
 facet normal -0.951394 -0.307977 -0
  outer loop
   vertex 0.00577554 -0.127993 0.271493
   vertex 0.00402274 -0.122578 0.266078
   vertex 0.00577554 -0.127993 0.116507
  endloop
 endfacet
 facet normal -0.932332 -0.361603 0
  outer loop
   vertex 0.00783355 -0.133299 0.111201
   vertex 0.00577554 -0.127993 0.271493
   vertex 0.00577554 -0.127993 0.116507
  endloop
 endfacet
 facet normal -0.911425 -0.411466 -0
  outer loop
   vertex 0.00783355 -0.133299 0.276799
   vertex 0.00783355 -0.133299 0.111201
   vertex 0.00994122 -0.137967 0.106533
  endloop
 endfacet
 facet normal -0.932332 -0.361603 -0
  outer loop
   vertex 0.00783355 -0.133299 0.276799
   vertex 0.00577554 -0.127993 0.271493
   vertex 0.00783355 -0.133299 0.111201
  endloop
 endfacet
 facet normal -0.890329 -0.455319 -0
  outer loop
   vertex 0.00994122 -0.137967 0.281467
   vertex 0.00994122 -0.137967 0.106533
   vertex 0.0120403 -0.142072 0.102428
  endloop
 endfacet
 facet normal -0.911425 -0.411466 -0
  outer loop
   vertex 0.00994122 -0.137967 0.281467
   vertex 0.00783355 -0.133299 0.276799
   vertex 0.00994122 -0.137967 0.106533
  endloop
 endfacet
 facet normal -0.868398 -0.495868 -0
  outer loop
   vertex 0.0120403 -0.142072 0.285572
   vertex 0.0120403 -0.142072 0.102428
   vertex 0.0143264 -0.146075 0.0984245
  endloop
 endfacet
 facet normal -0.890329 -0.455319 -0
  outer loop
   vertex 0.0120403 -0.142072 0.285572
   vertex 0.00994122 -0.137967 0.281467
   vertex 0.0120403 -0.142072 0.102428
  endloop
 endfacet
 facet normal -0.844619 -0.535368 -0
  outer loop
   vertex 0.0143264 -0.146075 0.289575
   vertex 0.0143264 -0.146075 0.0984245
   vertex 0.0167945 -0.149969 0.0945307
  endloop
 endfacet
 facet normal -0.868398 -0.495868 -0
  outer loop
   vertex 0.0143264 -0.146075 0.289575
   vertex 0.0120403 -0.142072 0.285572
   vertex 0.0143264 -0.146075 0.0984245
  endloop
 endfacet
 facet normal -0.819047 -0.573726 -0
  outer loop
   vertex 0.0167945 -0.149969 0.293469
   vertex 0.0167945 -0.149969 0.0945307
   vertex 0.0194395 -0.153745 0.0907547
  endloop
 endfacet
 facet normal -0.844619 -0.535368 -0
  outer loop
   vertex 0.0167945 -0.149969 0.293469
   vertex 0.0143264 -0.146075 0.289575
   vertex 0.0167945 -0.149969 0.0945307
  endloop
 endfacet
 facet normal -0.791734 -0.610865 -0
  outer loop
   vertex 0.0194395 -0.153745 0.297245
   vertex 0.0194395 -0.153745 0.0907547
   vertex 0.0222557 -0.157395 0.0871046
  endloop
 endfacet
 facet normal -0.819047 -0.573726 -0
  outer loop
   vertex 0.0194395 -0.153745 0.297245
   vertex 0.0167945 -0.149969 0.293469
   vertex 0.0194395 -0.153745 0.0907547
  endloop
 endfacet
 facet normal -0.762738 -0.646707 -0
  outer loop
   vertex 0.0222557 -0.157395 0.300895
   vertex 0.0222557 -0.157395 0.0871046
   vertex 0.0252372 -0.160912 0.0835883
  endloop
 endfacet
 facet normal -0.791734 -0.610865 -0
  outer loop
   vertex 0.0222557 -0.157395 0.300895
   vertex 0.0194395 -0.153745 0.297245
   vertex 0.0222557 -0.157395 0.0871046
  endloop
 endfacet
 facet normal -0.732121 -0.681175 -0
  outer loop
   vertex 0.0252372 -0.160912 0.304412
   vertex 0.0252372 -0.160912 0.0835883
   vertex 0.0283775 -0.164287 0.080213
  endloop
 endfacet
 facet normal -0.762738 -0.646707 -0
  outer loop
   vertex 0.0252372 -0.160912 0.304412
   vertex 0.0222557 -0.157395 0.300895
   vertex 0.0252372 -0.160912 0.0835883
  endloop
 endfacet
 facet normal -0.701594 -0.712577 -0
  outer loop
   vertex 0.0283775 -0.164287 0.307787
   vertex 0.0283775 -0.164287 0.080213
   vertex 0.0313342 -0.167198 0.077302
  endloop
 endfacet
 facet normal -0.732121 -0.681175 -0
  outer loop
   vertex 0.0283775 -0.164287 0.307787
   vertex 0.0252372 -0.160912 0.304412
   vertex 0.0283775 -0.164287 0.080213
  endloop
 endfacet
 facet normal -0.672963 -0.739676 -0
  outer loop
   vertex 0.0313342 -0.167198 0.310698
   vertex 0.0313342 -0.167198 0.077302
   vertex 0.0340964 -0.169711 0.0747889
  endloop
 endfacet
 facet normal -0.701594 -0.712577 -0
  outer loop
   vertex 0.0313342 -0.167198 0.310698
   vertex 0.0283775 -0.164287 0.307787
   vertex 0.0313342 -0.167198 0.077302
  endloop
 endfacet
 facet normal -0.644879 -0.764285 -0
  outer loop
   vertex 0.0340964 -0.169711 0.313211
   vertex 0.0340964 -0.169711 0.0747889
   vertex 0.0369505 -0.172119 0.0723806
  endloop
 endfacet
 facet normal -0.672963 -0.739676 -0
  outer loop
   vertex 0.0340964 -0.169711 0.313211
   vertex 0.0313342 -0.167198 0.310698
   vertex 0.0340964 -0.169711 0.0747889
  endloop
 endfacet
 facet normal -0.615891 -0.787832 -0
  outer loop
   vertex 0.0369505 -0.172119 0.315619
   vertex 0.0369505 -0.172119 0.0723806
   vertex 0.0398926 -0.174419 0.0700807
  endloop
 endfacet
 facet normal -0.644879 -0.764285 -0
  outer loop
   vertex 0.0369505 -0.172119 0.315619
   vertex 0.0340964 -0.169711 0.313211
   vertex 0.0369505 -0.172119 0.0723806
  endloop
 endfacet
 facet normal -0.586047 -0.810277 -0
  outer loop
   vertex 0.0398926 -0.174419 0.317919
   vertex 0.0398926 -0.174419 0.0700807
   vertex 0.0429185 -0.176608 0.0678922
  endloop
 endfacet
 facet normal -0.615891 -0.787832 -0
  outer loop
   vertex 0.0398926 -0.174419 0.317919
   vertex 0.0369505 -0.172119 0.315619
   vertex 0.0398926 -0.174419 0.0700807
  endloop
 endfacet
 facet normal -0.555385 -0.831593 -0
  outer loop
   vertex 0.0429185 -0.176608 0.320108
   vertex 0.0429185 -0.176608 0.0678922
   vertex 0.0460239 -0.178682 0.0658181
  endloop
 endfacet
 facet normal -0.586047 -0.810277 -0
  outer loop
   vertex 0.0429185 -0.176608 0.320108
   vertex 0.0398926 -0.174419 0.317919
   vertex 0.0429185 -0.176608 0.0678922
  endloop
 endfacet
 facet normal -0.523947 -0.851751 -0
  outer loop
   vertex 0.0460239 -0.178682 0.322182
   vertex 0.0460239 -0.178682 0.0658181
   vertex 0.0492047 -0.180638 0.0638615
  endloop
 endfacet
 facet normal -0.555385 -0.831593 -0
  outer loop
   vertex 0.0460239 -0.178682 0.322182
   vertex 0.0429185 -0.176608 0.320108
   vertex 0.0460239 -0.178682 0.0658181
  endloop
 endfacet
 facet normal -0.49178 -0.870719 -0
  outer loop
   vertex 0.0492047 -0.180638 0.324138
   vertex 0.0492047 -0.180638 0.0638615
   vertex 0.0524563 -0.182475 0.062025
  endloop
 endfacet
 facet normal -0.523947 -0.851751 -0
  outer loop
   vertex 0.0492047 -0.180638 0.324138
   vertex 0.0460239 -0.178682 0.322182
   vertex 0.0492047 -0.180638 0.0638615
  endloop
 endfacet
 facet normal -0.460587 -0.887614 -0
  outer loop
   vertex 0.0524563 -0.182475 0.325975
   vertex 0.0524563 -0.182475 0.062025
   vertex 0.0554395 -0.184023 0.060477
  endloop
 endfacet
 facet normal -0.49178 -0.870719 -0
  outer loop
   vertex 0.0524563 -0.182475 0.325975
   vertex 0.0492047 -0.180638 0.324138
   vertex 0.0524563 -0.182475 0.062025
  endloop
 endfacet
 facet normal -0.43201 -0.901869 -0
  outer loop
   vertex 0.0554395 -0.184023 0.327523
   vertex 0.0554395 -0.184023 0.060477
   vertex 0.0581676 -0.18533 0.0591702
  endloop
 endfacet
 facet normal -0.460587 -0.887614 -0
  outer loop
   vertex 0.0554395 -0.184023 0.327523
   vertex 0.0524563 -0.182475 0.325975
   vertex 0.0554395 -0.184023 0.060477
  endloop
 endfacet
 facet normal -0.404541 -0.91452 -0
  outer loop
   vertex 0.0581676 -0.18533 0.32883
   vertex 0.0581676 -0.18533 0.0591702
   vertex 0.0609339 -0.186553 0.0579465
  endloop
 endfacet
 facet normal -0.43201 -0.901869 -0
  outer loop
   vertex 0.0581676 -0.18533 0.32883
   vertex 0.0554395 -0.184023 0.327523
   vertex 0.0581676 -0.18533 0.0591702
  endloop
 endfacet
 facet normal -0.376693 -0.926338 -0
  outer loop
   vertex 0.0609339 -0.186553 0.330053
   vertex 0.0609339 -0.186553 0.0579465
   vertex 0.063736 -0.187693 0.0568071
  endloop
 endfacet
 facet normal -0.404541 -0.91452 -0
  outer loop
   vertex 0.0609339 -0.186553 0.330053
   vertex 0.0581676 -0.18533 0.32883
   vertex 0.0609339 -0.186553 0.0579465
  endloop
 endfacet
 facet normal -0.348502 -0.937308 -0
  outer loop
   vertex 0.063736 -0.187693 0.331193
   vertex 0.063736 -0.187693 0.0568071
   vertex 0.0665713 -0.188747 0.0557529
  endloop
 endfacet
 facet normal -0.376693 -0.926338 -0
  outer loop
   vertex 0.063736 -0.187693 0.331193
   vertex 0.0609339 -0.186553 0.330053
   vertex 0.063736 -0.187693 0.0568071
  endloop
 endfacet
 facet normal -0.319994 -0.94742 -0
  outer loop
   vertex 0.0665713 -0.188747 0.332247
   vertex 0.0665713 -0.188747 0.0557529
   vertex 0.0694371 -0.189715 0.0547849
  endloop
 endfacet
 facet normal -0.348502 -0.937308 -0
  outer loop
   vertex 0.0665713 -0.188747 0.332247
   vertex 0.063736 -0.187693 0.331193
   vertex 0.0665713 -0.188747 0.0557529
  endloop
 endfacet
 facet normal -0.319994 -0.94742 -0
  outer loop
   vertex 0.0694371 -0.189715 0.333215
   vertex 0.0665713 -0.188747 0.332247
   vertex 0.0694371 -0.189715 0.0547849
  endloop
 endfacet
 facet normal -0.291195 -0.956664 -0
  outer loop
   vertex 0.0694371 -0.189715 0.333215
   vertex 0.0694371 -0.189715 0.0547849
   vertex 0.072331 -0.190596 0.0539041
  endloop
 endfacet
 facet normal -0.291195 -0.956664 -0
  outer loop
   vertex 0.072331 -0.190596 0.334096
   vertex 0.0694371 -0.189715 0.333215
   vertex 0.072331 -0.190596 0.0539041
  endloop
 endfacet
 facet normal -0.262126 -0.965034 -0
  outer loop
   vertex 0.072331 -0.190596 0.334096
   vertex 0.072331 -0.190596 0.0539041
   vertex 0.0752501 -0.191389 0.0531112
  endloop
 endfacet
 facet normal -0.262126 -0.965034 -0
  outer loop
   vertex 0.0752501 -0.191389 0.334889
   vertex 0.072331 -0.190596 0.334096
   vertex 0.0752501 -0.191389 0.0531112
  endloop
 endfacet
 facet normal -0.232815 -0.972521 -0
  outer loop
   vertex 0.0752501 -0.191389 0.334889
   vertex 0.0752501 -0.191389 0.0531112
   vertex 0.0781919 -0.192093 0.0524069
  endloop
 endfacet
 facet normal -0.232815 -0.972521 -0
  outer loop
   vertex 0.0781919 -0.192093 0.335593
   vertex 0.0752501 -0.191389 0.334889
   vertex 0.0781919 -0.192093 0.0524069
  endloop
 endfacet
 facet normal -0.203298 -0.979117 -0
  outer loop
   vertex 0.0781919 -0.192093 0.335593
   vertex 0.0781919 -0.192093 0.0524069
   vertex 0.0811536 -0.192708 0.051792
  endloop
 endfacet
 facet normal -0.203298 -0.979117 -0
  outer loop
   vertex 0.0811536 -0.192708 0.336208
   vertex 0.0781919 -0.192093 0.335593
   vertex 0.0811536 -0.192708 0.051792
  endloop
 endfacet
 facet normal -0.173588 -0.984818 -0
  outer loop
   vertex 0.0811536 -0.192708 0.336208
   vertex 0.0811536 -0.192708 0.051792
   vertex 0.0841326 -0.193233 0.0512669
  endloop
 endfacet
 facet normal -0.173588 -0.984818 -0
  outer loop
   vertex 0.0841326 -0.193233 0.336733
   vertex 0.0811536 -0.192708 0.336208
   vertex 0.0841326 -0.193233 0.0512669
  endloop
 endfacet
 facet normal -0.143721 -0.989618 -0
  outer loop
   vertex 0.0841326 -0.193233 0.336733
   vertex 0.0841326 -0.193233 0.0512669
   vertex 0.0871261 -0.193668 0.0508322
  endloop
 endfacet
 facet normal -0.143721 -0.989618 -0
  outer loop
   vertex 0.0871261 -0.193668 0.337168
   vertex 0.0841326 -0.193233 0.336733
   vertex 0.0871261 -0.193668 0.0508322
  endloop
 endfacet
 facet normal -0.113725 -0.993512 -0
  outer loop
   vertex 0.0871261 -0.193668 0.337168
   vertex 0.0871261 -0.193668 0.0508322
   vertex 0.0901314 -0.194012 0.0504881
  endloop
 endfacet
 facet normal -0.113725 -0.993512 -0
  outer loop
   vertex 0.0901314 -0.194012 0.337512
   vertex 0.0871261 -0.193668 0.337168
   vertex 0.0901314 -0.194012 0.0504881
  endloop
 endfacet
 facet normal -0.0836266 -0.996497 -0
  outer loop
   vertex 0.0901314 -0.194012 0.337512
   vertex 0.0901314 -0.194012 0.0504881
   vertex 0.0931457 -0.194265 0.0502352
  endloop
 endfacet
 facet normal -0.0836266 -0.996497 -0
  outer loop
   vertex 0.0931457 -0.194265 0.337765
   vertex 0.0901314 -0.194012 0.337512
   vertex 0.0931457 -0.194265 0.0502352
  endloop
 endfacet
 facet normal -0.0534488 -0.998571 -0
  outer loop
   vertex 0.0961662 -0.194426 0.337926
   vertex 0.0931457 -0.194265 0.0502352
   vertex 0.0961662 -0.194426 0.0500735
  endloop
 endfacet
 facet normal -0.0534488 -0.998571 0
  outer loop
   vertex 0.0961662 -0.194426 0.337926
   vertex 0.0931457 -0.194265 0.337765
   vertex 0.0931457 -0.194265 0.0502352
  endloop
 endfacet
 facet normal -0.028756 -0.999586 0
  outer loop
   vertex 0.0980828 -0.194482 0.337982
   vertex 0.0961662 -0.194426 0.337926
   vertex 0.0961662 -0.194426 0.0500735
  endloop
 endfacet
 facet normal -0.028756 -0.999586 -0
  outer loop
   vertex 0.0980828 -0.194482 0.337982
   vertex 0.0961662 -0.194426 0.0500735
   vertex 0.0980828 -0.194482 0.0500184
  endloop
 endfacet
 facet normal -0.0095827 -0.999954 -0
  outer loop
   vertex 0.1 -0.1945 0.338
   vertex 0.0980828 -0.194482 0.0500184
   vertex 0.1 -0.1945 0.05
  endloop
 endfacet
 facet normal -0.0095827 -0.999954 0
  outer loop
   vertex 0.1 -0.1945 0.338
   vertex 0.0980828 -0.194482 0.337982
   vertex 0.0980828 -0.194482 0.0500184
  endloop
 endfacet
 facet normal -0.999595 0 -0.0284567
  outer loop
   vertex 0.000161957 -0.100189 0.144311
   vertex -2.84217e-17 -0.0945 0.15
   vertex -2.84217e-17 0.0945 0.15
  endloop
 endfacet
 facet normal -0.999595 -0 -0.0284567
  outer loop
   vertex 0.000161957 0.100189 0.144311
   vertex 0.000161957 -0.100189 0.144311
   vertex -2.84217e-17 0.0945 0.15
  endloop
 endfacet
 facet normal -0.996357 0 -0.0852778
  outer loop
   vertex 0.000647302 -0.10586 0.13864
   vertex 0.000161957 -0.100189 0.144311
   vertex 0.000161957 0.100189 0.144311
  endloop
 endfacet
 facet normal -0.996357 -0 -0.0852778
  outer loop
   vertex 0.000647302 0.10586 0.13864
   vertex 0.000647302 -0.10586 0.13864
   vertex 0.000161957 0.100189 0.144311
  endloop
 endfacet
 facet normal -0.989892 -0 -0.141823
  outer loop
   vertex 0.00145446 0.111493 0.133007
   vertex 0.00145446 -0.111493 0.133007
   vertex 0.000647302 -0.10586 0.13864
  endloop
 endfacet
 facet normal -0.989892 0 -0.141823
  outer loop
   vertex 0.00145446 0.111493 0.133007
   vertex 0.000647302 -0.10586 0.13864
   vertex 0.000647302 0.10586 0.13864
  endloop
 endfacet
 facet normal -0.98022 -0 -0.197908
  outer loop
   vertex 0.00258083 0.117072 0.127428
   vertex 0.00258083 -0.117072 0.127428
   vertex 0.00145446 -0.111493 0.133007
  endloop
 endfacet
 facet normal -0.98022 0 -0.197908
  outer loop
   vertex 0.00258083 0.117072 0.127428
   vertex 0.00145446 -0.111493 0.133007
   vertex 0.00145446 0.111493 0.133007
  endloop
 endfacet
 facet normal -0.967374 0 -0.253353
  outer loop
   vertex 0.00402274 0.122578 0.121922
   vertex 0.00258083 -0.117072 0.127428
   vertex 0.00258083 0.117072 0.127428
  endloop
 endfacet
 facet normal -0.967374 -0 -0.253353
  outer loop
   vertex 0.00402274 0.122578 0.121922
   vertex 0.00402274 -0.122578 0.121922
   vertex 0.00258083 -0.117072 0.127428
  endloop
 endfacet
 facet normal -0.951394 0 -0.307977
  outer loop
   vertex 0.00577554 0.127993 0.116507
   vertex 0.00402274 -0.122578 0.121922
   vertex 0.00402274 0.122578 0.121922
  endloop
 endfacet
 facet normal -0.951394 -0 -0.307977
  outer loop
   vertex 0.00577554 0.127993 0.116507
   vertex 0.00577554 -0.127993 0.116507
   vertex 0.00402274 -0.122578 0.121922
  endloop
 endfacet
 facet normal -0.932332 -0 -0.361603
  outer loop
   vertex 0.00577554 0.127993 0.116507
   vertex 0.00783355 -0.133299 0.111201
   vertex 0.00577554 -0.127993 0.116507
  endloop
 endfacet
 facet normal -0.911425 -0 -0.411466
  outer loop
   vertex 0.00783355 0.133299 0.111201
   vertex 0.00994122 -0.137967 0.106533
   vertex 0.00783355 -0.133299 0.111201
  endloop
 endfacet
 facet normal -0.932332 -0 -0.361603
  outer loop
   vertex 0.00783355 0.133299 0.111201
   vertex 0.00783355 -0.133299 0.111201
   vertex 0.00577554 0.127993 0.116507
  endloop
 endfacet
 facet normal -0.890329 -0 -0.455318
  outer loop
   vertex 0.00994122 0.137967 0.106533
   vertex 0.0120403 -0.142072 0.102428
   vertex 0.00994122 -0.137967 0.106533
  endloop
 endfacet
 facet normal -0.911425 -0 -0.411466
  outer loop
   vertex 0.00994122 0.137967 0.106533
   vertex 0.00994122 -0.137967 0.106533
   vertex 0.00783355 0.133299 0.111201
  endloop
 endfacet
 facet normal -0.868397 -0 -0.495869
  outer loop
   vertex 0.0120403 0.142072 0.102428
   vertex 0.0143264 -0.146075 0.0984245
   vertex 0.0120403 -0.142072 0.102428
  endloop
 endfacet
 facet normal -0.890329 -0 -0.455318
  outer loop
   vertex 0.0120403 0.142072 0.102428
   vertex 0.0120403 -0.142072 0.102428
   vertex 0.00994122 0.137967 0.106533
  endloop
 endfacet
 facet normal -0.84462 -0 -0.535367
  outer loop
   vertex 0.0143264 0.146075 0.0984245
   vertex 0.0167945 -0.149969 0.0945307
   vertex 0.0143264 -0.146075 0.0984245
  endloop
 endfacet
 facet normal -0.868397 -0 -0.495869
  outer loop
   vertex 0.0143264 0.146075 0.0984245
   vertex 0.0143264 -0.146075 0.0984245
   vertex 0.0120403 0.142072 0.102428
  endloop
 endfacet
 facet normal -0.819048 -0 -0.573725
  outer loop
   vertex 0.0167945 0.149969 0.0945307
   vertex 0.0194395 -0.153745 0.0907547
   vertex 0.0167945 -0.149969 0.0945307
  endloop
 endfacet
 facet normal -0.84462 -0 -0.535367
  outer loop
   vertex 0.0167945 0.149969 0.0945307
   vertex 0.0167945 -0.149969 0.0945307
   vertex 0.0143264 0.146075 0.0984245
  endloop
 endfacet
 facet normal -0.791734 -0 -0.610866
  outer loop
   vertex 0.0194395 0.153745 0.0907547
   vertex 0.0222557 -0.157395 0.0871046
   vertex 0.0194395 -0.153745 0.0907547
  endloop
 endfacet
 facet normal -0.819048 -0 -0.573725
  outer loop
   vertex 0.0194395 0.153745 0.0907547
   vertex 0.0194395 -0.153745 0.0907547
   vertex 0.0167945 0.149969 0.0945307
  endloop
 endfacet
 facet normal -0.762738 -0 -0.646708
  outer loop
   vertex 0.0222557 0.157395 0.0871046
   vertex 0.0252372 -0.160912 0.0835883
   vertex 0.0222557 -0.157395 0.0871046
  endloop
 endfacet
 facet normal -0.791734 -0 -0.610866
  outer loop
   vertex 0.0222557 0.157395 0.0871046
   vertex 0.0222557 -0.157395 0.0871046
   vertex 0.0194395 0.153745 0.0907547
  endloop
 endfacet
 facet normal -0.762738 -0 -0.646708
  outer loop
   vertex 0.0252372 0.160912 0.0835883
   vertex 0.0252372 -0.160912 0.0835883
   vertex 0.0222557 0.157395 0.0871046
  endloop
 endfacet
 facet normal -0.732121 -0 -0.681174
  outer loop
   vertex 0.0283775 0.164287 0.080213
   vertex 0.0283775 -0.164287 0.080213
   vertex 0.0252372 -0.160912 0.0835883
  endloop
 endfacet
 facet normal -0.701593 -0 -0.712578
  outer loop
   vertex 0.0283775 0.164287 0.080213
   vertex 0.0313342 -0.167198 0.077302
   vertex 0.0283775 -0.164287 0.080213
  endloop
 endfacet
 facet normal -0.732121 0 -0.681174
  outer loop
   vertex 0.0283775 0.164287 0.080213
   vertex 0.0252372 -0.160912 0.0835883
   vertex 0.0252372 0.160912 0.0835883
  endloop
 endfacet
 facet normal -0.672964 -0 -0.739675
  outer loop
   vertex 0.0313342 0.167198 0.077302
   vertex 0.0340964 -0.169711 0.0747889
   vertex 0.0313342 -0.167198 0.077302
  endloop
 endfacet
 facet normal -0.701593 -0 -0.712578
  outer loop
   vertex 0.0313342 0.167198 0.077302
   vertex 0.0313342 -0.167198 0.077302
   vertex 0.0283775 0.164287 0.080213
  endloop
 endfacet
 facet normal -0.644878 -0 -0.764286
  outer loop
   vertex 0.0340964 0.169711 0.0747889
   vertex 0.0369505 -0.172119 0.0723806
   vertex 0.0340964 -0.169711 0.0747889
  endloop
 endfacet
 facet normal -0.672964 -0 -0.739675
  outer loop
   vertex 0.0340964 0.169711 0.0747889
   vertex 0.0340964 -0.169711 0.0747889
   vertex 0.0313342 0.167198 0.077302
  endloop
 endfacet
 facet normal -0.615892 -0 -0.787831
  outer loop
   vertex 0.0369505 0.172119 0.0723806
   vertex 0.0398926 -0.174419 0.0700807
   vertex 0.0369505 -0.172119 0.0723806
  endloop
 endfacet
 facet normal -0.644878 -0 -0.764286
  outer loop
   vertex 0.0369505 0.172119 0.0723806
   vertex 0.0369505 -0.172119 0.0723806
   vertex 0.0340964 0.169711 0.0747889
  endloop
 endfacet
 facet normal -0.615892 -0 -0.787831
  outer loop
   vertex 0.0398926 0.174419 0.0700807
   vertex 0.0398926 -0.174419 0.0700807
   vertex 0.0369505 0.172119 0.0723806
  endloop
 endfacet
 facet normal -0.586047 -0 -0.810277
  outer loop
   vertex 0.0429185 0.176608 0.0678922
   vertex 0.0429185 -0.176608 0.0678922
   vertex 0.0398926 -0.174419 0.0700807
  endloop
 endfacet
 facet normal -0.586047 0 -0.810277
  outer loop
   vertex 0.0429185 0.176608 0.0678922
   vertex 0.0398926 -0.174419 0.0700807
   vertex 0.0398926 0.174419 0.0700807
  endloop
 endfacet
 facet normal -0.555384 -0 -0.831594
  outer loop
   vertex 0.0460239 0.178682 0.0658181
   vertex 0.0460239 -0.178682 0.0658181
   vertex 0.0429185 -0.176608 0.0678922
  endloop
 endfacet
 facet normal -0.555384 0 -0.831594
  outer loop
   vertex 0.0460239 0.178682 0.0658181
   vertex 0.0429185 -0.176608 0.0678922
   vertex 0.0429185 0.176608 0.0678922
  endloop
 endfacet
 facet normal -0.523949 -0 -0.85175
  outer loop
   vertex 0.0492047 0.180638 0.0638615
   vertex 0.0492047 -0.180638 0.0638615
   vertex 0.0460239 -0.178682 0.0658181
  endloop
 endfacet
 facet normal -0.523949 0 -0.85175
  outer loop
   vertex 0.0492047 0.180638 0.0638615
   vertex 0.0460239 -0.178682 0.0658181
   vertex 0.0460239 0.178682 0.0658181
  endloop
 endfacet
 facet normal -0.49178 -0 -0.870719
  outer loop
   vertex 0.0524563 0.182475 0.062025
   vertex 0.0524563 -0.182475 0.062025
   vertex 0.0492047 -0.180638 0.0638615
  endloop
 endfacet
 facet normal -0.49178 0 -0.870719
  outer loop
   vertex 0.0524563 0.182475 0.062025
   vertex 0.0492047 -0.180638 0.0638615
   vertex 0.0492047 0.180638 0.0638615
  endloop
 endfacet
 facet normal -0.460586 -0 -0.887615
  outer loop
   vertex 0.0554395 0.184023 0.060477
   vertex 0.0554395 -0.184023 0.060477
   vertex 0.0524563 -0.182475 0.062025
  endloop
 endfacet
 facet normal -0.460586 0 -0.887615
  outer loop
   vertex 0.0554395 0.184023 0.060477
   vertex 0.0524563 -0.182475 0.062025
   vertex 0.0524563 0.182475 0.062025
  endloop
 endfacet
 facet normal -0.432014 -0 -0.901867
  outer loop
   vertex 0.0581676 0.18533 0.0591702
   vertex 0.0581676 -0.18533 0.0591702
   vertex 0.0554395 -0.184023 0.060477
  endloop
 endfacet
 facet normal -0.432014 0 -0.901867
  outer loop
   vertex 0.0581676 0.18533 0.0591702
   vertex 0.0554395 -0.184023 0.060477
   vertex 0.0554395 0.184023 0.060477
  endloop
 endfacet
 facet normal -0.404539 -0 -0.914521
  outer loop
   vertex 0.0609339 0.186553 0.0579465
   vertex 0.0609339 -0.186553 0.0579465
   vertex 0.0581676 -0.18533 0.0591702
  endloop
 endfacet
 facet normal -0.376693 -0 -0.926338
  outer loop
   vertex 0.0609339 0.186553 0.0579465
   vertex 0.063736 -0.187693 0.0568071
   vertex 0.0609339 -0.186553 0.0579465
  endloop
 endfacet
 facet normal -0.404539 0 -0.914521
  outer loop
   vertex 0.0609339 0.186553 0.0579465
   vertex 0.0581676 -0.18533 0.0591702
   vertex 0.0581676 0.18533 0.0591702
  endloop
 endfacet
 facet normal -0.348504 -0 -0.937307
  outer loop
   vertex 0.063736 0.187693 0.0568071
   vertex 0.0665713 -0.188747 0.0557529
   vertex 0.063736 -0.187693 0.0568071
  endloop
 endfacet
 facet normal -0.376693 -0 -0.926338
  outer loop
   vertex 0.063736 0.187693 0.0568071
   vertex 0.063736 -0.187693 0.0568071
   vertex 0.0609339 0.186553 0.0579465
  endloop
 endfacet
 facet normal -0.319995 -0 -0.947419
  outer loop
   vertex 0.0665713 0.188747 0.0557529
   vertex 0.0694371 -0.189715 0.0547849
   vertex 0.0665713 -0.188747 0.0557529
  endloop
 endfacet
 facet normal -0.348504 -0 -0.937307
  outer loop
   vertex 0.0665713 0.188747 0.0557529
   vertex 0.0665713 -0.188747 0.0557529
   vertex 0.063736 0.187693 0.0568071
  endloop
 endfacet
 facet normal -0.319995 -0 -0.947419
  outer loop
   vertex 0.0694371 0.189715 0.0547849
   vertex 0.0694371 -0.189715 0.0547849
   vertex 0.0665713 0.188747 0.0557529
  endloop
 endfacet
 facet normal -0.291193 -0 -0.956664
  outer loop
   vertex 0.0694371 0.189715 0.0547849
   vertex 0.072331 -0.190596 0.0539041
   vertex 0.0694371 -0.189715 0.0547849
  endloop
 endfacet
 facet normal -0.291193 -0 -0.956664
  outer loop
   vertex 0.072331 0.190596 0.0539041
   vertex 0.072331 -0.190596 0.0539041
   vertex 0.0694371 0.189715 0.0547849
  endloop
 endfacet
 facet normal -0.262125 -0 -0.965034
  outer loop
   vertex 0.072331 0.190596 0.0539041
   vertex 0.0752501 -0.191389 0.0531112
   vertex 0.072331 -0.190596 0.0539041
  endloop
 endfacet
 facet normal -0.262125 -0 -0.965034
  outer loop
   vertex 0.0752501 0.191389 0.0531112
   vertex 0.0752501 -0.191389 0.0531112
   vertex 0.072331 0.190596 0.0539041
  endloop
 endfacet
 facet normal -0.232816 -0 -0.972521
  outer loop
   vertex 0.0752501 0.191389 0.0531112
   vertex 0.0781919 -0.192093 0.0524069
   vertex 0.0752501 -0.191389 0.0531112
  endloop
 endfacet
 facet normal -0.232816 -0 -0.972521
  outer loop
   vertex 0.0781919 0.192093 0.0524069
   vertex 0.0781919 -0.192093 0.0524069
   vertex 0.0752501 0.191389 0.0531112
  endloop
 endfacet
 facet normal -0.203296 -0 -0.979117
  outer loop
   vertex 0.0781919 0.192093 0.0524069
   vertex 0.0811536 -0.192708 0.051792
   vertex 0.0781919 -0.192093 0.0524069
  endloop
 endfacet
 facet normal -0.203296 -0 -0.979117
  outer loop
   vertex 0.0811536 0.192708 0.051792
   vertex 0.0811536 -0.192708 0.051792
   vertex 0.0781919 0.192093 0.0524069
  endloop
 endfacet
 facet normal -0.173589 -0 -0.984818
  outer loop
   vertex 0.0811536 0.192708 0.051792
   vertex 0.0841326 -0.193233 0.0512669
   vertex 0.0811536 -0.192708 0.051792
  endloop
 endfacet
 facet normal -0.173589 -0 -0.984818
  outer loop
   vertex 0.0841326 0.193233 0.0512669
   vertex 0.0841326 -0.193233 0.0512669
   vertex 0.0811536 0.192708 0.051792
  endloop
 endfacet
 facet normal -0.143723 -0 -0.989618
  outer loop
   vertex 0.0841326 0.193233 0.0512669
   vertex 0.0871261 -0.193668 0.0508322
   vertex 0.0841326 -0.193233 0.0512669
  endloop
 endfacet
 facet normal -0.143723 -0 -0.989618
  outer loop
   vertex 0.0871261 0.193668 0.0508322
   vertex 0.0871261 -0.193668 0.0508322
   vertex 0.0841326 0.193233 0.0512669
  endloop
 endfacet
 facet normal -0.113726 -0 -0.993512
  outer loop
   vertex 0.0871261 0.193668 0.0508322
   vertex 0.0901314 -0.194012 0.0504881
   vertex 0.0871261 -0.193668 0.0508322
  endloop
 endfacet
 facet normal -0.113726 -0 -0.993512
  outer loop
   vertex 0.0901314 0.194012 0.0504881
   vertex 0.0901314 -0.194012 0.0504881
   vertex 0.0871261 0.193668 0.0508322
  endloop
 endfacet
 facet normal -0.0836246 0 -0.996497
  outer loop
   vertex 0.0931457 0.194265 0.0502352
   vertex 0.0901314 -0.194012 0.0504881
   vertex 0.0901314 0.194012 0.0504881
  endloop
 endfacet
 facet normal -0.0836246 -0 -0.996497
  outer loop
   vertex 0.0931457 0.194265 0.0502352
   vertex 0.0931457 -0.194265 0.0502352
   vertex 0.0901314 -0.194012 0.0504881
  endloop
 endfacet
 facet normal -0.0534465 0 -0.998571
  outer loop
   vertex 0.0961662 0.194426 0.0500735
   vertex 0.0931457 -0.194265 0.0502352
   vertex 0.0931457 0.194265 0.0502352
  endloop
 endfacet
 facet normal -0.0534465 -0 -0.998571
  outer loop
   vertex 0.0961662 0.194426 0.0500735
   vertex 0.0961662 -0.194426 0.0500735
   vertex 0.0931457 -0.194265 0.0502352
  endloop
 endfacet
 facet normal -0.0287564 0 -0.999586
  outer loop
   vertex 0.0980828 0.194482 0.0500184
   vertex 0.0961662 -0.194426 0.0500735
   vertex 0.0961662 0.194426 0.0500735
  endloop
 endfacet
 facet normal -0.0287564 -0 -0.999586
  outer loop
   vertex 0.0980828 0.194482 0.0500184
   vertex 0.0980828 -0.194482 0.0500184
   vertex 0.0961662 -0.194426 0.0500735
  endloop
 endfacet
 facet normal -0.00958657 -0 -0.999954
  outer loop
   vertex 0.1 0.1945 0.05
   vertex 0.1 -0.1945 0.05
   vertex 0.0980828 -0.194482 0.0500184
  endloop
 endfacet
 facet normal -0.00958657 0 -0.999954
  outer loop
   vertex 0.1 0.1945 0.05
   vertex 0.0980828 -0.194482 0.0500184
   vertex 0.0980828 0.194482 0.0500184
  endloop
 endfacet
 facet normal -0.999595 0 0.0284566
  outer loop
   vertex 0.000161957 -0.100189 0.243689
   vertex -2.84217e-17 0.0945 0.238
   vertex -2.84217e-17 -0.0945 0.238
  endloop
 endfacet
 facet normal -0.999595 0 0.0284566
  outer loop
   vertex 0.000161957 0.100189 0.243689
   vertex -2.84217e-17 0.0945 0.238
   vertex 0.000161957 -0.100189 0.243689
  endloop
 endfacet
 facet normal -0.996357 0 0.0852778
  outer loop
   vertex 0.000647302 -0.10586 0.24936
   vertex 0.000161957 0.100189 0.243689
   vertex 0.000161957 -0.100189 0.243689
  endloop
 endfacet
 facet normal -0.996357 0 0.0852778
  outer loop
   vertex 0.000647302 0.10586 0.24936
   vertex 0.000161957 0.100189 0.243689
   vertex 0.000647302 -0.10586 0.24936
  endloop
 endfacet
 facet normal -0.989892 0 0.141823
  outer loop
   vertex 0.00145446 -0.111493 0.254993
   vertex 0.000647302 0.10586 0.24936
   vertex 0.000647302 -0.10586 0.24936
  endloop
 endfacet
 facet normal -0.989892 0 0.141823
  outer loop
   vertex 0.00145446 0.111493 0.254993
   vertex 0.000647302 0.10586 0.24936
   vertex 0.00145446 -0.111493 0.254993
  endloop
 endfacet
 facet normal -0.980221 0 0.197908
  outer loop
   vertex 0.00258083 -0.117072 0.260572
   vertex 0.00145446 0.111493 0.254993
   vertex 0.00145446 -0.111493 0.254993
  endloop
 endfacet
 facet normal -0.980221 0 0.197908
  outer loop
   vertex 0.00258083 0.117072 0.260572
   vertex 0.00145446 0.111493 0.254993
   vertex 0.00258083 -0.117072 0.260572
  endloop
 endfacet
 facet normal -0.967374 0 0.253353
  outer loop
   vertex 0.00402274 -0.122578 0.266078
   vertex 0.00258083 0.117072 0.260572
   vertex 0.00258083 -0.117072 0.260572
  endloop
 endfacet
 facet normal -0.967374 0 0.253353
  outer loop
   vertex 0.00402274 0.122578 0.266078
   vertex 0.00258083 0.117072 0.260572
   vertex 0.00402274 -0.122578 0.266078
  endloop
 endfacet
 facet normal -0.951394 0 0.307977
  outer loop
   vertex 0.00577554 -0.127993 0.271493
   vertex 0.00402274 0.122578 0.266078
   vertex 0.00402274 -0.122578 0.266078
  endloop
 endfacet
 facet normal -0.951394 0 0.307977
  outer loop
   vertex 0.00577554 0.127993 0.271493
   vertex 0.00402274 0.122578 0.266078
   vertex 0.00577554 -0.127993 0.271493
  endloop
 endfacet
 facet normal -0.932332 0 0.361602
  outer loop
   vertex 0.00783355 0.133299 0.276799
   vertex 0.00577554 -0.127993 0.271493
   vertex 0.00783355 -0.133299 0.276799
  endloop
 endfacet
 facet normal -0.932332 0 0.361602
  outer loop
   vertex 0.00783355 0.133299 0.276799
   vertex 0.00577554 0.127993 0.271493
   vertex 0.00577554 -0.127993 0.271493
  endloop
 endfacet
 facet normal -0.911425 0 0.411466
  outer loop
   vertex 0.00994122 0.137967 0.281467
   vertex 0.00783355 -0.133299 0.276799
   vertex 0.00994122 -0.137967 0.281467
  endloop
 endfacet
 facet normal -0.911425 0 0.411466
  outer loop
   vertex 0.00994122 0.137967 0.281467
   vertex 0.00783355 0.133299 0.276799
   vertex 0.00783355 -0.133299 0.276799
  endloop
 endfacet
 facet normal -0.890329 0 0.455319
  outer loop
   vertex 0.0120403 0.142072 0.285572
   vertex 0.00994122 -0.137967 0.281467
   vertex 0.0120403 -0.142072 0.285572
  endloop
 endfacet
 facet normal -0.890329 0 0.455319
  outer loop
   vertex 0.0120403 0.142072 0.285572
   vertex 0.00994122 0.137967 0.281467
   vertex 0.00994122 -0.137967 0.281467
  endloop
 endfacet
 facet normal -0.868397 0 0.495869
  outer loop
   vertex 0.0143264 0.146075 0.289575
   vertex 0.0120403 -0.142072 0.285572
   vertex 0.0143264 -0.146075 0.289575
  endloop
 endfacet
 facet normal -0.868397 0 0.495869
  outer loop
   vertex 0.0143264 0.146075 0.289575
   vertex 0.0120403 0.142072 0.285572
   vertex 0.0120403 -0.142072 0.285572
  endloop
 endfacet
 facet normal -0.84462 0 0.535366
  outer loop
   vertex 0.0167945 0.149969 0.293469
   vertex 0.0143264 -0.146075 0.289575
   vertex 0.0167945 -0.149969 0.293469
  endloop
 endfacet
 facet normal -0.84462 0 0.535366
  outer loop
   vertex 0.0167945 0.149969 0.293469
   vertex 0.0143264 0.146075 0.289575
   vertex 0.0143264 -0.146075 0.289575
  endloop
 endfacet
 facet normal -0.819047 0 0.573726
  outer loop
   vertex 0.0194395 0.153745 0.297245
   vertex 0.0167945 -0.149969 0.293469
   vertex 0.0194395 -0.153745 0.297245
  endloop
 endfacet
 facet normal -0.819047 0 0.573726
  outer loop
   vertex 0.0194395 0.153745 0.297245
   vertex 0.0167945 0.149969 0.293469
   vertex 0.0167945 -0.149969 0.293469
  endloop
 endfacet
 facet normal -0.791736 0 0.610864
  outer loop
   vertex 0.0222557 0.157395 0.300895
   vertex 0.0194395 -0.153745 0.297245
   vertex 0.0222557 -0.157395 0.300895
  endloop
 endfacet
 facet normal -0.791736 0 0.610864
  outer loop
   vertex 0.0222557 0.157395 0.300895
   vertex 0.0194395 0.153745 0.297245
   vertex 0.0194395 -0.153745 0.297245
  endloop
 endfacet
 facet normal -0.762736 0 0.64671
  outer loop
   vertex 0.0252372 0.160912 0.304412
   vertex 0.0222557 -0.157395 0.300895
   vertex 0.0252372 -0.160912 0.304412
  endloop
 endfacet
 facet normal -0.762736 0 0.64671
  outer loop
   vertex 0.0252372 0.160912 0.304412
   vertex 0.0222557 0.157395 0.300895
   vertex 0.0222557 -0.157395 0.300895
  endloop
 endfacet
 facet normal -0.732122 0 0.681173
  outer loop
   vertex 0.0283775 0.164287 0.307787
   vertex 0.0252372 -0.160912 0.304412
   vertex 0.0283775 -0.164287 0.307787
  endloop
 endfacet
 facet normal -0.732122 0 0.681173
  outer loop
   vertex 0.0283775 0.164287 0.307787
   vertex 0.0252372 0.160912 0.304412
   vertex 0.0252372 -0.160912 0.304412
  endloop
 endfacet
 facet normal -0.701594 0 0.712577
  outer loop
   vertex 0.0313342 0.167198 0.310698
   vertex 0.0283775 -0.164287 0.307787
   vertex 0.0313342 -0.167198 0.310698
  endloop
 endfacet
 facet normal -0.672961 0 0.739678
  outer loop
   vertex 0.0313342 0.167198 0.310698
   vertex 0.0313342 -0.167198 0.310698
   vertex 0.0340964 -0.169711 0.313211
  endloop
 endfacet
 facet normal -0.701594 0 0.712577
  outer loop
   vertex 0.0313342 0.167198 0.310698
   vertex 0.0283775 0.164287 0.307787
   vertex 0.0283775 -0.164287 0.307787
  endloop
 endfacet
 facet normal -0.644881 0 0.764283
  outer loop
   vertex 0.0340964 0.169711 0.313211
   vertex 0.0340964 -0.169711 0.313211
   vertex 0.0369505 -0.172119 0.315619
  endloop
 endfacet
 facet normal -0.672961 0 0.739678
  outer loop
   vertex 0.0340964 0.169711 0.313211
   vertex 0.0313342 0.167198 0.310698
   vertex 0.0340964 -0.169711 0.313211
  endloop
 endfacet
 facet normal -0.644881 0 0.764283
  outer loop
   vertex 0.0369505 0.172119 0.315619
   vertex 0.0340964 0.169711 0.313211
   vertex 0.0369505 -0.172119 0.315619
  endloop
 endfacet
 facet normal -0.615891 0 0.787832
  outer loop
   vertex 0.0398926 0.174419 0.317919
   vertex 0.0369505 -0.172119 0.315619
   vertex 0.0398926 -0.174419 0.317919
  endloop
 endfacet
 facet normal -0.615891 0 0.787832
  outer loop
   vertex 0.0398926 0.174419 0.317919
   vertex 0.0369505 0.172119 0.315619
   vertex 0.0369505 -0.172119 0.315619
  endloop
 endfacet
 facet normal -0.586045 0 0.810279
  outer loop
   vertex 0.0429185 0.176608 0.320108
   vertex 0.0398926 -0.174419 0.317919
   vertex 0.0429185 -0.176608 0.320108
  endloop
 endfacet
 facet normal -0.555388 0 0.831591
  outer loop
   vertex 0.0429185 0.176608 0.320108
   vertex 0.0429185 -0.176608 0.320108
   vertex 0.0460239 -0.178682 0.322182
  endloop
 endfacet
 facet normal -0.586045 0 0.810279
  outer loop
   vertex 0.0429185 0.176608 0.320108
   vertex 0.0398926 0.174419 0.317919
   vertex 0.0398926 -0.174419 0.317919
  endloop
 endfacet
 facet normal -0.523947 0 0.851751
  outer loop
   vertex 0.0460239 0.178682 0.322182
   vertex 0.0460239 -0.178682 0.322182
   vertex 0.0492047 -0.180638 0.324138
  endloop
 endfacet
 facet normal -0.555388 0 0.831591
  outer loop
   vertex 0.0460239 0.178682 0.322182
   vertex 0.0429185 0.176608 0.320108
   vertex 0.0460239 -0.178682 0.322182
  endloop
 endfacet
 facet normal -0.491777 0 0.870721
  outer loop
   vertex 0.0492047 0.180638 0.324138
   vertex 0.0492047 -0.180638 0.324138
   vertex 0.0524563 -0.182475 0.325975
  endloop
 endfacet
 facet normal -0.523947 0 0.851751
  outer loop
   vertex 0.0492047 0.180638 0.324138
   vertex 0.0460239 0.178682 0.322182
   vertex 0.0492047 -0.180638 0.324138
  endloop
 endfacet
 facet normal -0.491777 0 0.870721
  outer loop
   vertex 0.0524563 0.182475 0.325975
   vertex 0.0492047 0.180638 0.324138
   vertex 0.0524563 -0.182475 0.325975
  endloop
 endfacet
 facet normal -0.460587 0 0.887614
  outer loop
   vertex 0.0554395 0.184023 0.327523
   vertex 0.0524563 -0.182475 0.325975
   vertex 0.0554395 -0.184023 0.327523
  endloop
 endfacet
 facet normal -0.460587 0 0.887614
  outer loop
   vertex 0.0554395 0.184023 0.327523
   vertex 0.0524563 0.182475 0.325975
   vertex 0.0524563 -0.182475 0.325975
  endloop
 endfacet
 facet normal -0.432014 0 0.901867
  outer loop
   vertex 0.0581676 0.18533 0.32883
   vertex 0.0554395 -0.184023 0.327523
   vertex 0.0581676 -0.18533 0.32883
  endloop
 endfacet
 facet normal -0.404537 0 0.914522
  outer loop
   vertex 0.0581676 0.18533 0.32883
   vertex 0.0581676 -0.18533 0.32883
   vertex 0.0609339 -0.186553 0.330053
  endloop
 endfacet
 facet normal -0.432014 0 0.901867
  outer loop
   vertex 0.0581676 0.18533 0.32883
   vertex 0.0554395 0.184023 0.327523
   vertex 0.0554395 -0.184023 0.327523
  endloop
 endfacet
 facet normal -0.404537 0 0.914522
  outer loop
   vertex 0.0609339 0.186553 0.330053
   vertex 0.0581676 0.18533 0.32883
   vertex 0.0609339 -0.186553 0.330053
  endloop
 endfacet
 facet normal -0.376693 0 0.926338
  outer loop
   vertex 0.063736 0.187693 0.331193
   vertex 0.0609339 -0.186553 0.330053
   vertex 0.063736 -0.187693 0.331193
  endloop
 endfacet
 facet normal -0.348506 0 0.937306
  outer loop
   vertex 0.063736 0.187693 0.331193
   vertex 0.063736 -0.187693 0.331193
   vertex 0.0665713 -0.188747 0.332247
  endloop
 endfacet
 facet normal -0.376693 0 0.926338
  outer loop
   vertex 0.063736 0.187693 0.331193
   vertex 0.0609339 0.186553 0.330053
   vertex 0.0609339 -0.186553 0.330053
  endloop
 endfacet
 facet normal -0.348506 0 0.937306
  outer loop
   vertex 0.0665713 0.188747 0.332247
   vertex 0.063736 0.187693 0.331193
   vertex 0.0665713 -0.188747 0.332247
  endloop
 endfacet
 facet normal -0.319994 0 0.94742
  outer loop
   vertex 0.0694371 0.189715 0.333215
   vertex 0.0665713 0.188747 0.332247
   vertex 0.0665713 -0.188747 0.332247
  endloop
 endfacet
 facet normal -0.319994 0 0.94742
  outer loop
   vertex 0.0694371 0.189715 0.333215
   vertex 0.0665713 -0.188747 0.332247
   vertex 0.0694371 -0.189715 0.333215
  endloop
 endfacet
 facet normal -0.291195 0 0.956664
  outer loop
   vertex 0.072331 0.190596 0.334096
   vertex 0.0694371 0.189715 0.333215
   vertex 0.0694371 -0.189715 0.333215
  endloop
 endfacet
 facet normal -0.291195 0 0.956664
  outer loop
   vertex 0.072331 0.190596 0.334096
   vertex 0.0694371 -0.189715 0.333215
   vertex 0.072331 -0.190596 0.334096
  endloop
 endfacet
 facet normal -0.262122 0 0.965035
  outer loop
   vertex 0.0752501 0.191389 0.334889
   vertex 0.072331 0.190596 0.334096
   vertex 0.072331 -0.190596 0.334096
  endloop
 endfacet
 facet normal -0.262122 0 0.965035
  outer loop
   vertex 0.0752501 0.191389 0.334889
   vertex 0.072331 -0.190596 0.334096
   vertex 0.0752501 -0.191389 0.334889
  endloop
 endfacet
 facet normal -0.23282 0 0.97252
  outer loop
   vertex 0.0752501 0.191389 0.334889
   vertex 0.0752501 -0.191389 0.334889
   vertex 0.0781919 -0.192093 0.335593
  endloop
 endfacet
 facet normal -0.23282 0 0.97252
  outer loop
   vertex 0.0781919 0.192093 0.335593
   vertex 0.0752501 0.191389 0.334889
   vertex 0.0781919 -0.192093 0.335593
  endloop
 endfacet
 facet normal -0.203293 0 0.979118
  outer loop
   vertex 0.0811536 0.192708 0.336208
   vertex 0.0781919 0.192093 0.335593
   vertex 0.0781919 -0.192093 0.335593
  endloop
 endfacet
 facet normal -0.203293 0 0.979118
  outer loop
   vertex 0.0811536 0.192708 0.336208
   vertex 0.0781919 -0.192093 0.335593
   vertex 0.0811536 -0.192708 0.336208
  endloop
 endfacet
 facet normal -0.173588 0 0.984818
  outer loop
   vertex 0.0811536 0.192708 0.336208
   vertex 0.0811536 -0.192708 0.336208
   vertex 0.0841326 -0.193233 0.336733
  endloop
 endfacet
 facet normal -0.173588 0 0.984818
  outer loop
   vertex 0.0841326 0.193233 0.336733
   vertex 0.0811536 0.192708 0.336208
   vertex 0.0841326 -0.193233 0.336733
  endloop
 endfacet
 facet normal -0.143726 0 0.989618
  outer loop
   vertex 0.0871261 0.193668 0.337168
   vertex 0.0841326 0.193233 0.336733
   vertex 0.0841326 -0.193233 0.336733
  endloop
 endfacet
 facet normal -0.143726 0 0.989618
  outer loop
   vertex 0.0871261 0.193668 0.337168
   vertex 0.0841326 -0.193233 0.336733
   vertex 0.0871261 -0.193668 0.337168
  endloop
 endfacet
 facet normal -0.113725 0 0.993512
  outer loop
   vertex 0.0871261 0.193668 0.337168
   vertex 0.0871261 -0.193668 0.337168
   vertex 0.0901314 -0.194012 0.337512
  endloop
 endfacet
 facet normal -0.113725 0 0.993512
  outer loop
   vertex 0.0901314 0.194012 0.337512
   vertex 0.0871261 0.193668 0.337168
   vertex 0.0901314 -0.194012 0.337512
  endloop
 endfacet
 facet normal -0.0836266 0 0.996497
  outer loop
   vertex 0.0931457 0.194265 0.337765
   vertex 0.0901314 0.194012 0.337512
   vertex 0.0901314 -0.194012 0.337512
  endloop
 endfacet
 facet normal -0.0836266 0 0.996497
  outer loop
   vertex 0.0931457 0.194265 0.337765
   vertex 0.0901314 -0.194012 0.337512
   vertex 0.0931457 -0.194265 0.337765
  endloop
 endfacet
 facet normal -0.0534488 0 0.998571
  outer loop
   vertex 0.0961662 0.194426 0.337926
   vertex 0.0931457 0.194265 0.337765
   vertex 0.0931457 -0.194265 0.337765
  endloop
 endfacet
 facet normal -0.0534488 0 0.998571
  outer loop
   vertex 0.0961662 0.194426 0.337926
   vertex 0.0931457 -0.194265 0.337765
   vertex 0.0961662 -0.194426 0.337926
  endloop
 endfacet
 facet normal -0.028756 0 0.999586
  outer loop
   vertex 0.0961662 0.194426 0.337926
   vertex 0.0961662 -0.194426 0.337926
   vertex 0.0980828 -0.194482 0.337982
  endloop
 endfacet
 facet normal -0.028756 0 0.999586
  outer loop
   vertex 0.0980828 0.194482 0.337982
   vertex 0.0961662 0.194426 0.337926
   vertex 0.0980828 -0.194482 0.337982
  endloop
 endfacet
 facet normal -0.00957493 0 0.999954
  outer loop
   vertex 0.1 0.1945 0.338
   vertex 0.0980828 -0.194482 0.337982
   vertex 0.1 -0.1945 0.338
  endloop
 endfacet
 facet normal -0.00957493 0 0.999954
  outer loop
   vertex 0.1 0.1945 0.338
   vertex 0.0980828 0.194482 0.337982
   vertex 0.0980828 -0.194482 0.337982
  endloop
 endfacet
 facet normal -0.999595 0.0284567 0
  outer loop
   vertex 0.000161957 0.100189 0.144311
   vertex -2.84217e-17 0.0945 0.15
   vertex -2.84217e-17 0.0945 0.238
  endloop
 endfacet
 facet normal -0.999595 0.0284567 0
  outer loop
   vertex 0.000161957 0.100189 0.243689
   vertex 0.000161957 0.100189 0.144311
   vertex -2.84217e-17 0.0945 0.238
  endloop
 endfacet
 facet normal -0.996357 0.0852778 0
  outer loop
   vertex 0.000647302 0.10586 0.13864
   vertex 0.000161957 0.100189 0.144311
   vertex 0.000161957 0.100189 0.243689
  endloop
 endfacet
 facet normal -0.996357 0.0852778 0
  outer loop
   vertex 0.000647302 0.10586 0.24936
   vertex 0.000647302 0.10586 0.13864
   vertex 0.000161957 0.100189 0.243689
  endloop
 endfacet
 facet normal -0.989892 0.141823 0
  outer loop
   vertex 0.00145446 0.111493 0.133007
   vertex 0.000647302 0.10586 0.13864
   vertex 0.000647302 0.10586 0.24936
  endloop
 endfacet
 facet normal -0.989892 0.141823 0
  outer loop
   vertex 0.00145446 0.111493 0.254993
   vertex 0.00145446 0.111493 0.133007
   vertex 0.000647302 0.10586 0.24936
  endloop
 endfacet
 facet normal -0.98022 0.197908 0
  outer loop
   vertex 0.00258083 0.117072 0.127428
   vertex 0.00145446 0.111493 0.133007
   vertex 0.00145446 0.111493 0.254993
  endloop
 endfacet
 facet normal -0.98022 0.197908 0
  outer loop
   vertex 0.00258083 0.117072 0.260572
   vertex 0.00258083 0.117072 0.127428
   vertex 0.00145446 0.111493 0.254993
  endloop
 endfacet
 facet normal -0.967374 0.253353 0
  outer loop
   vertex 0.00402274 0.122578 0.121922
   vertex 0.00258083 0.117072 0.127428
   vertex 0.00258083 0.117072 0.260572
  endloop
 endfacet
 facet normal -0.967374 0.253353 0
  outer loop
   vertex 0.00402274 0.122578 0.266078
   vertex 0.00402274 0.122578 0.121922
   vertex 0.00258083 0.117072 0.260572
  endloop
 endfacet
 facet normal -0.951394 0.307977 0
  outer loop
   vertex 0.00577554 0.127993 0.116507
   vertex 0.00402274 0.122578 0.121922
   vertex 0.00402274 0.122578 0.266078
  endloop
 endfacet
 facet normal -0.951394 0.307977 0
  outer loop
   vertex 0.00577554 0.127993 0.271493
   vertex 0.00577554 0.127993 0.116507
   vertex 0.00402274 0.122578 0.266078
  endloop
 endfacet
 facet normal -0.932332 0.361603 0
  outer loop
   vertex 0.00783355 0.133299 0.111201
   vertex 0.00577554 0.127993 0.116507
   vertex 0.00577554 0.127993 0.271493
  endloop
 endfacet
 facet normal -0.911425 0.411466 0
  outer loop
   vertex 0.00783355 0.133299 0.276799
   vertex 0.00994122 0.137967 0.106533
   vertex 0.00783355 0.133299 0.111201
  endloop
 endfacet
 facet normal -0.932332 0.361603 0
  outer loop
   vertex 0.00783355 0.133299 0.276799
   vertex 0.00783355 0.133299 0.111201
   vertex 0.00577554 0.127993 0.271493
  endloop
 endfacet
 facet normal -0.890329 0.455319 0
  outer loop
   vertex 0.00994122 0.137967 0.281467
   vertex 0.0120403 0.142072 0.102428
   vertex 0.00994122 0.137967 0.106533
  endloop
 endfacet
 facet normal -0.911425 0.411466 0
  outer loop
   vertex 0.00994122 0.137967 0.281467
   vertex 0.00994122 0.137967 0.106533
   vertex 0.00783355 0.133299 0.276799
  endloop
 endfacet
 facet normal -0.868398 0.495868 0
  outer loop
   vertex 0.0120403 0.142072 0.285572
   vertex 0.0143264 0.146075 0.0984245
   vertex 0.0120403 0.142072 0.102428
  endloop
 endfacet
 facet normal -0.890329 0.455319 0
  outer loop
   vertex 0.0120403 0.142072 0.285572
   vertex 0.0120403 0.142072 0.102428
   vertex 0.00994122 0.137967 0.281467
  endloop
 endfacet
 facet normal -0.844619 0.535368 0
  outer loop
   vertex 0.0143264 0.146075 0.289575
   vertex 0.0167945 0.149969 0.0945307
   vertex 0.0143264 0.146075 0.0984245
  endloop
 endfacet
 facet normal -0.868398 0.495868 0
  outer loop
   vertex 0.0143264 0.146075 0.289575
   vertex 0.0143264 0.146075 0.0984245
   vertex 0.0120403 0.142072 0.285572
  endloop
 endfacet
 facet normal -0.819047 0.573726 0
  outer loop
   vertex 0.0167945 0.149969 0.293469
   vertex 0.0194395 0.153745 0.0907547
   vertex 0.0167945 0.149969 0.0945307
  endloop
 endfacet
 facet normal -0.844619 0.535368 0
  outer loop
   vertex 0.0167945 0.149969 0.293469
   vertex 0.0167945 0.149969 0.0945307
   vertex 0.0143264 0.146075 0.289575
  endloop
 endfacet
 facet normal -0.791734 0.610865 0
  outer loop
   vertex 0.0194395 0.153745 0.297245
   vertex 0.0222557 0.157395 0.0871046
   vertex 0.0194395 0.153745 0.0907547
  endloop
 endfacet
 facet normal -0.819047 0.573726 0
  outer loop
   vertex 0.0194395 0.153745 0.297245
   vertex 0.0194395 0.153745 0.0907547
   vertex 0.0167945 0.149969 0.293469
  endloop
 endfacet
 facet normal -0.762738 0.646707 0
  outer loop
   vertex 0.0222557 0.157395 0.300895
   vertex 0.0252372 0.160912 0.0835883
   vertex 0.0222557 0.157395 0.0871046
  endloop
 endfacet
 facet normal -0.791734 0.610865 0
  outer loop
   vertex 0.0222557 0.157395 0.300895
   vertex 0.0222557 0.157395 0.0871046
   vertex 0.0194395 0.153745 0.297245
  endloop
 endfacet
 facet normal -0.732121 0.681175 0
  outer loop
   vertex 0.0252372 0.160912 0.304412
   vertex 0.0283775 0.164287 0.080213
   vertex 0.0252372 0.160912 0.0835883
  endloop
 endfacet
 facet normal -0.762738 0.646707 0
  outer loop
   vertex 0.0252372 0.160912 0.304412
   vertex 0.0252372 0.160912 0.0835883
   vertex 0.0222557 0.157395 0.300895
  endloop
 endfacet
 facet normal -0.701594 0.712577 0
  outer loop
   vertex 0.0283775 0.164287 0.307787
   vertex 0.0313342 0.167198 0.077302
   vertex 0.0283775 0.164287 0.080213
  endloop
 endfacet
 facet normal -0.732121 0.681175 0
  outer loop
   vertex 0.0283775 0.164287 0.307787
   vertex 0.0283775 0.164287 0.080213
   vertex 0.0252372 0.160912 0.304412
  endloop
 endfacet
 facet normal -0.672963 0.739676 0
  outer loop
   vertex 0.0313342 0.167198 0.310698
   vertex 0.0340964 0.169711 0.0747889
   vertex 0.0313342 0.167198 0.077302
  endloop
 endfacet
 facet normal -0.701594 0.712577 0
  outer loop
   vertex 0.0313342 0.167198 0.310698
   vertex 0.0313342 0.167198 0.077302
   vertex 0.0283775 0.164287 0.307787
  endloop
 endfacet
 facet normal -0.644879 0.764285 0
  outer loop
   vertex 0.0340964 0.169711 0.313211
   vertex 0.0369505 0.172119 0.0723806
   vertex 0.0340964 0.169711 0.0747889
  endloop
 endfacet
 facet normal -0.672963 0.739676 0
  outer loop
   vertex 0.0340964 0.169711 0.313211
   vertex 0.0340964 0.169711 0.0747889
   vertex 0.0313342 0.167198 0.310698
  endloop
 endfacet
 facet normal -0.615891 0.787832 0
  outer loop
   vertex 0.0369505 0.172119 0.315619
   vertex 0.0398926 0.174419 0.0700807
   vertex 0.0369505 0.172119 0.0723806
  endloop
 endfacet
 facet normal -0.644879 0.764285 0
  outer loop
   vertex 0.0369505 0.172119 0.315619
   vertex 0.0369505 0.172119 0.0723806
   vertex 0.0340964 0.169711 0.313211
  endloop
 endfacet
 facet normal -0.586047 0.810277 0
  outer loop
   vertex 0.0398926 0.174419 0.317919
   vertex 0.0429185 0.176608 0.0678922
   vertex 0.0398926 0.174419 0.0700807
  endloop
 endfacet
 facet normal -0.615891 0.787832 0
  outer loop
   vertex 0.0398926 0.174419 0.317919
   vertex 0.0398926 0.174419 0.0700807
   vertex 0.0369505 0.172119 0.315619
  endloop
 endfacet
 facet normal -0.555385 0.831593 0
  outer loop
   vertex 0.0429185 0.176608 0.320108
   vertex 0.0460239 0.178682 0.0658181
   vertex 0.0429185 0.176608 0.0678922
  endloop
 endfacet
 facet normal -0.586047 0.810277 0
  outer loop
   vertex 0.0429185 0.176608 0.320108
   vertex 0.0429185 0.176608 0.0678922
   vertex 0.0398926 0.174419 0.317919
  endloop
 endfacet
 facet normal -0.523947 0.851751 0
  outer loop
   vertex 0.0460239 0.178682 0.322182
   vertex 0.0492047 0.180638 0.0638615
   vertex 0.0460239 0.178682 0.0658181
  endloop
 endfacet
 facet normal -0.555385 0.831593 0
  outer loop
   vertex 0.0460239 0.178682 0.322182
   vertex 0.0460239 0.178682 0.0658181
   vertex 0.0429185 0.176608 0.320108
  endloop
 endfacet
 facet normal -0.49178 0.870719 0
  outer loop
   vertex 0.0492047 0.180638 0.324138
   vertex 0.0524563 0.182475 0.062025
   vertex 0.0492047 0.180638 0.0638615
  endloop
 endfacet
 facet normal -0.523947 0.851751 0
  outer loop
   vertex 0.0492047 0.180638 0.324138
   vertex 0.0492047 0.180638 0.0638615
   vertex 0.0460239 0.178682 0.322182
  endloop
 endfacet
 facet normal -0.460587 0.887614 0
  outer loop
   vertex 0.0524563 0.182475 0.325975
   vertex 0.0554395 0.184023 0.060477
   vertex 0.0524563 0.182475 0.062025
  endloop
 endfacet
 facet normal -0.49178 0.870719 0
  outer loop
   vertex 0.0524563 0.182475 0.325975
   vertex 0.0524563 0.182475 0.062025
   vertex 0.0492047 0.180638 0.324138
  endloop
 endfacet
 facet normal -0.43201 0.901869 0
  outer loop
   vertex 0.0554395 0.184023 0.327523
   vertex 0.0581676 0.18533 0.0591702
   vertex 0.0554395 0.184023 0.060477
  endloop
 endfacet
 facet normal -0.460587 0.887614 0
  outer loop
   vertex 0.0554395 0.184023 0.327523
   vertex 0.0554395 0.184023 0.060477
   vertex 0.0524563 0.182475 0.325975
  endloop
 endfacet
 facet normal -0.404541 0.91452 0
  outer loop
   vertex 0.0581676 0.18533 0.32883
   vertex 0.0609339 0.186553 0.0579465
   vertex 0.0581676 0.18533 0.0591702
  endloop
 endfacet
 facet normal -0.43201 0.901869 0
  outer loop
   vertex 0.0581676 0.18533 0.32883
   vertex 0.0581676 0.18533 0.0591702
   vertex 0.0554395 0.184023 0.327523
  endloop
 endfacet
 facet normal -0.376693 0.926338 0
  outer loop
   vertex 0.0609339 0.186553 0.330053
   vertex 0.063736 0.187693 0.0568071
   vertex 0.0609339 0.186553 0.0579465
  endloop
 endfacet
 facet normal -0.404541 0.91452 0
  outer loop
   vertex 0.0609339 0.186553 0.330053
   vertex 0.0609339 0.186553 0.0579465
   vertex 0.0581676 0.18533 0.32883
  endloop
 endfacet
 facet normal -0.348502 0.937308 0
  outer loop
   vertex 0.063736 0.187693 0.331193
   vertex 0.0665713 0.188747 0.0557529
   vertex 0.063736 0.187693 0.0568071
  endloop
 endfacet
 facet normal -0.376693 0.926338 0
  outer loop
   vertex 0.063736 0.187693 0.331193
   vertex 0.063736 0.187693 0.0568071
   vertex 0.0609339 0.186553 0.330053
  endloop
 endfacet
 facet normal -0.319994 0.94742 0
  outer loop
   vertex 0.0665713 0.188747 0.332247
   vertex 0.0694371 0.189715 0.0547849
   vertex 0.0665713 0.188747 0.0557529
  endloop
 endfacet
 facet normal -0.348502 0.937308 0
  outer loop
   vertex 0.0665713 0.188747 0.332247
   vertex 0.0665713 0.188747 0.0557529
   vertex 0.063736 0.187693 0.331193
  endloop
 endfacet
 facet normal -0.319994 0.94742 0
  outer loop
   vertex 0.0694371 0.189715 0.333215
   vertex 0.0694371 0.189715 0.0547849
   vertex 0.0665713 0.188747 0.332247
  endloop
 endfacet
 facet normal -0.291195 0.956664 0
  outer loop
   vertex 0.0694371 0.189715 0.333215
   vertex 0.072331 0.190596 0.0539041
   vertex 0.0694371 0.189715 0.0547849
  endloop
 endfacet
 facet normal -0.291195 0.956664 0
  outer loop
   vertex 0.072331 0.190596 0.334096
   vertex 0.072331 0.190596 0.0539041
   vertex 0.0694371 0.189715 0.333215
  endloop
 endfacet
 facet normal -0.262126 0.965034 0
  outer loop
   vertex 0.072331 0.190596 0.334096
   vertex 0.0752501 0.191389 0.0531112
   vertex 0.072331 0.190596 0.0539041
  endloop
 endfacet
 facet normal -0.262126 0.965034 0
  outer loop
   vertex 0.0752501 0.191389 0.334889
   vertex 0.0752501 0.191389 0.0531112
   vertex 0.072331 0.190596 0.334096
  endloop
 endfacet
 facet normal -0.232815 0.972521 0
  outer loop
   vertex 0.0752501 0.191389 0.334889
   vertex 0.0781919 0.192093 0.0524069
   vertex 0.0752501 0.191389 0.0531112
  endloop
 endfacet
 facet normal -0.232815 0.972521 0
  outer loop
   vertex 0.0781919 0.192093 0.335593
   vertex 0.0781919 0.192093 0.0524069
   vertex 0.0752501 0.191389 0.334889
  endloop
 endfacet
 facet normal -0.203298 0.979117 0
  outer loop
   vertex 0.0781919 0.192093 0.335593
   vertex 0.0811536 0.192708 0.051792
   vertex 0.0781919 0.192093 0.0524069
  endloop
 endfacet
 facet normal -0.203298 0.979117 0
  outer loop
   vertex 0.0811536 0.192708 0.336208
   vertex 0.0811536 0.192708 0.051792
   vertex 0.0781919 0.192093 0.335593
  endloop
 endfacet
 facet normal -0.173588 0.984818 0
  outer loop
   vertex 0.0811536 0.192708 0.336208
   vertex 0.0841326 0.193233 0.0512669
   vertex 0.0811536 0.192708 0.051792
  endloop
 endfacet
 facet normal -0.173588 0.984818 0
  outer loop
   vertex 0.0841326 0.193233 0.336733
   vertex 0.0841326 0.193233 0.0512669
   vertex 0.0811536 0.192708 0.336208
  endloop
 endfacet
 facet normal -0.143721 0.989618 0
  outer loop
   vertex 0.0841326 0.193233 0.336733
   vertex 0.0871261 0.193668 0.0508322
   vertex 0.0841326 0.193233 0.0512669
  endloop
 endfacet
 facet normal -0.143721 0.989618 0
  outer loop
   vertex 0.0871261 0.193668 0.337168
   vertex 0.0871261 0.193668 0.0508322
   vertex 0.0841326 0.193233 0.336733
  endloop
 endfacet
 facet normal -0.113725 0.993512 0
  outer loop
   vertex 0.0871261 0.193668 0.337168
   vertex 0.0901314 0.194012 0.0504881
   vertex 0.0871261 0.193668 0.0508322
  endloop
 endfacet
 facet normal -0.113725 0.993512 0
  outer loop
   vertex 0.0901314 0.194012 0.337512
   vertex 0.0901314 0.194012 0.0504881
   vertex 0.0871261 0.193668 0.337168
  endloop
 endfacet
 facet normal -0.0836266 0.996497 0
  outer loop
   vertex 0.0901314 0.194012 0.337512
   vertex 0.0931457 0.194265 0.0502352
   vertex 0.0901314 0.194012 0.0504881
  endloop
 endfacet
 facet normal -0.0836266 0.996497 0
  outer loop
   vertex 0.0931457 0.194265 0.337765
   vertex 0.0931457 0.194265 0.0502352
   vertex 0.0901314 0.194012 0.337512
  endloop
 endfacet
 facet normal -0.0534488 0.998571 0
  outer loop
   vertex 0.0961662 0.194426 0.337926
   vertex 0.0961662 0.194426 0.0500735
   vertex 0.0931457 0.194265 0.0502352
  endloop
 endfacet
 facet normal -0.028756 0.999586 0
  outer loop
   vertex 0.0961662 0.194426 0.337926
   vertex 0.0980828 0.194482 0.0500184
   vertex 0.0961662 0.194426 0.0500735
  endloop
 endfacet
 facet normal -0.0534488 0.998571 0
  outer loop
   vertex 0.0961662 0.194426 0.337926
   vertex 0.0931457 0.194265 0.0502352
   vertex 0.0931457 0.194265 0.337765
  endloop
 endfacet
 facet normal -0.028756 0.999586 0
  outer loop
   vertex 0.0980828 0.194482 0.337982
   vertex 0.0980828 0.194482 0.0500184
   vertex 0.0961662 0.194426 0.337926
  endloop
 endfacet
 facet normal -0.0095827 0.999954 0
  outer loop
   vertex 0.0980828 0.194482 0.337982
   vertex 0.1 0.1945 0.05
   vertex 0.0980828 0.194482 0.0500184
  endloop
 endfacet
 facet normal -0.0095827 0.999954 0
  outer loop
   vertex 0.1 0.1945 0.338
   vertex 0.1 0.1945 0.05
   vertex 0.0980828 0.194482 0.337982
  endloop
 endfacet
 facet normal 0 -1 -0
  outer loop
   vertex 0.8428 -0.1945 0.338
   vertex 0.1 -0.1945 0.05
   vertex 1.044 -0.1945 0.05
  endloop
 endfacet
 facet normal -0 -1 0
  outer loop
   vertex 0.8428 -0.1945 0.338
   vertex 0.1 -0.1945 0.338
   vertex 0.1 -0.1945 0.05
  endloop
 endfacet
 facet normal -0 -1 -0
  outer loop
   vertex 1.044 -0.1945 0.244179
   vertex 0.8428 -0.1945 0.338
   vertex 1.044 -0.1945 0.05
  endloop
 endfacet
 facet normal -0 0 -1
  outer loop
   vertex 1.044 0.1945 0.05
   vertex 0.1 -0.1945 0.05
   vertex 0.1 0.1945 0.05
  endloop
 endfacet
 facet normal 0 -0 -1
  outer loop
   vertex 1.044 0.1945 0.05
   vertex 1.044 -0.1945 0.05
   vertex 0.1 -0.1945 0.05
  endloop
 endfacet
 facet normal 0 0 1
  outer loop
   vertex 0.8428 0.1945 0.338
   vertex 0.1 0.1945 0.338
   vertex 0.1 -0.1945 0.338
  endloop
 endfacet
 facet normal 0 0 1
  outer loop
   vertex 0.8428 0.1945 0.338
   vertex 0.1 -0.1945 0.338
   vertex 0.8428 -0.1945 0.338
  endloop
 endfacet
 facet normal 0 1 0
  outer loop
   vertex 0.8428 0.1945 0.338
   vertex 1.044 0.1945 0.05
   vertex 0.1 0.1945 0.05
  endloop
 endfacet
 facet normal 0 1 0
  outer loop
   vertex 0.8428 0.1945 0.338
   vertex 0.1 0.1945 0.05
   vertex 0.1 0.1945 0.338
  endloop
 endfacet
 facet normal 0 1 0
  outer loop
   vertex 1.044 0.1945 0.244179
   vertex 1.044 0.1945 0.05
   vertex 0.8428 0.1945 0.338
  endloop
 endfacet
 facet normal 0.422618 0 0.906308
  outer loop
   vertex 1.044 0.1945 0.244179
   vertex 0.8428 0.1945 0.338
   vertex 0.8428 -0.1945 0.338
  endloop
 endfacet
 facet normal 0.422618 0 0.906308
  outer loop
   vertex 1.044 0.1945 0.244179
   vertex 0.8428 -0.1945 0.338
   vertex 1.044 -0.1945 0.244179
  endloop
 endfacet
 facet normal 1 0 0
  outer loop
   vertex 1.044 -0.1945 0.244179
   vertex 1.044 -0.1945 0.05
   vertex 1.044 0.1945 0.05
  endloop
 endfacet
 facet normal 1 -0 0
  outer loop
   vertex 1.044 -0.1945 0.244179
   vertex 1.044 0.1945 0.05
   vertex 1.044 0.1945 0.244179
  endloop
 endfacet
endsolid zone0
